<svg width="21" height="21" viewBox="0 0 21 21" fill="none" xmlns="http://www.w3.org/2000/svg">
<path d="M7.99293 18.1767V15.5012C7.99293 14.8182 8.55065 14.2645 9.23863 14.2645H11.7535C12.0839 14.2645 12.4008 14.3948 12.6344 14.6267C12.868 14.8586 12.9992 15.1732 12.9992 15.5012V18.1767C12.9971 18.4606 13.1093 18.7336 13.3108 18.9352C13.5123 19.1367 13.7865 19.25 14.0726 19.25H15.7883C16.5897 19.2521 17.3589 18.9375 17.9263 18.3757C18.4936 17.8139 18.8125 17.0511 18.8125 16.2556V8.6335C18.8125 7.9909 18.5256 7.38136 18.029 6.96908L12.1923 2.34139C11.177 1.52999 9.72222 1.55619 8.73722 2.40361L3.03364 6.96908C2.51365 7.36921 2.20286 7.98056 2.1875 8.6335V16.2478C2.1875 17.9059 3.54146 19.25 5.21165 19.25H6.88825C7.48232 19.25 7.96512 18.7742 7.96943 18.1845L7.99293 18.1767Z" fill="#FFFF"/>
</svg>
